<?xml version="1.0" encoding="UTF-8" standalone="no"?>
<!-- Created with Inkscape (http://www.inkscape.org/) -->

<svg
   width="990.245"
   height="280.15121"
   viewBox="0 0 990.245 280.15121"
   version="1.1"
   id="svg5"
   xml:space="preserve"
   inkscape:version="1.2 (dc2aedaf03, 2022-05-15)"
   sodipodi:docname="logo.svg"
   xmlns:inkscape="http://www.inkscape.org/namespaces/inkscape"
   xmlns:sodipodi="http://sodipodi.sourceforge.net/DTD/sodipodi-0.dtd"
   xmlns="http://www.w3.org/2000/svg"
   xmlns:svg="http://www.w3.org/2000/svg"><sodipodi:namedview
     id="namedview7"
     pagecolor="#ffffff"
     bordercolor="#000000"
     borderopacity="0.25"
     inkscape:showpageshadow="2"
     inkscape:pageopacity="0.0"
     inkscape:pagecheckerboard="0"
     inkscape:deskcolor="#d1d1d1"
     inkscape:document-units="px"
     showgrid="false"
     showguides="false"
     inkscape:zoom="1.065898"
     inkscape:cx="530.53857"
     inkscape:cy="67.548677"
     inkscape:window-width="1920"
     inkscape:window-height="1017"
     inkscape:window-x="-8"
     inkscape:window-y="-8"
     inkscape:window-maximized="1"
     inkscape:current-layer="svg5" /><defs
     id="defs2"><clipPath
       clipPathUnits="userSpaceOnUse"
       id="clipPath3050"><path
         d="M -913.96,367.48317 H 1531.868 V -1617.2568 H -913.96 Z"
         id="path3052"
         style="stroke-width:0.999998" /></clipPath><clipPath
       clipPathUnits="userSpaceOnUse"
       id="clipPath3054"><path
         d="m -1099.7017,647.96747 h 2445.828 V -1336.7725 h -2445.828 z"
         id="path3056"
         style="stroke-width:0.999998" /></clipPath><clipPath
       clipPathUnits="userSpaceOnUse"
       id="clipPath3058"><path
         d="m -1358.4771,706.80348 h 2445.828 V -1277.9365 h -2445.828 z"
         id="path3060"
         style="stroke-width:0.999998" /></clipPath><clipPath
       clipPathUnits="userSpaceOnUse"
       id="clipPath3062"><path
         d="M -1544.2036,987.25658 H 901.62439 V -997.4834 H -1544.2036 Z"
         id="path3064"
         style="stroke-width:0.999998" /></clipPath><clipPath
       clipPathUnits="userSpaceOnUse"
       id="clipPath3066"><path
         d="M -1747.2603,1605.5475 H 698.5677 V -379.19243 h -2445.828 z"
         id="path3068"
         style="stroke-width:0.999998" /></clipPath><clipPath
       clipPathUnits="userSpaceOnUse"
       id="clipPath3070"><path
         d="M -2085.5063,1755.3504 H 360.3217 V -229.38961 h -2445.828 z"
         id="path3072"
         style="stroke-width:0.999998" /></clipPath><clipPath
       clipPathUnits="userSpaceOnUse"
       id="clipPath3074"><path
         d="M -454.45951,1520.2322 H 1991.3685 v -1984.74 H -454.45951 Z"
         id="path3076"
         style="stroke-width:0.999998" /></clipPath><clipPath
       clipPathUnits="userSpaceOnUse"
       id="clipPath3078"><path
         d="m -931.8037,1707.6774 h 2445.828 V -277.06253 h -2445.828 z"
         id="path3080"
         style="stroke-width:0.999998" /></clipPath><clipPath
       clipPathUnits="userSpaceOnUse"
       id="clipPath3082"><path
         d="m -1097.8647,1739.3298 h 2445.828 V -245.41021 h -2445.828 z"
         id="path3084"
         style="stroke-width:0.999998" /></clipPath></defs><g
     inkscape:label="Camada 1"
     inkscape:groupmode="layer"
     id="layer1"
     transform="translate(-361.07197,-463.35092)" /><g
     id="g3096"
     transform="matrix(0.18214534,0,0,0.18214534,959.4158,-136.77055)"><g
       id="g322"
       transform="matrix(1.3333333,0,0,-1.3333333,-1822.4394,1218.7302)"
       clip-path="url(#clipPath3082)"><path
         d="m 0,0 c 0,-50.259 46.234,-77.735 101.309,-77.735 h 260.263 v 61.714 H 154.899 c -9.284,0 -23.176,2.524 -23.176,19.05 v 73.079 h 197.081 v 45.525 H 131.723 v 88.859 h 204.381 c 24.159,3.189 25.468,15.935 25.468,46.758 v 8.842 L 0,266.092 Z"
         style="fill:#231f20;fill-opacity:1;fill-rule:nonzero;stroke:none"
         id="path324" /></g><g
       id="g326"
       transform="matrix(1.3333333,0,0,-1.3333333,-2043.8541,1176.5271)"
       clip-path="url(#clipPath3078)"><path
         d="M 0,0 C 0,-47.779 -21.223,-47.673 -69.983,-47.673 H -170.542 V 178.84 H -69.983 C -19.68,178.84 0.22,177.632 0.22,126.877 0.22,122.398 0,6.447 0,0 m -26.817,234.439 h -263.126 v -343.827 h 263.126 c 101.851,0 146.115,28.152 148.041,124.084 0.043,1.868 0.059,88.753 0.014,90.227 -1.499,94.652 -45.792,129.516 -148.055,129.516"
         style="fill:#231f20;fill-opacity:1;fill-rule:nonzero;stroke:none"
         id="path328" /></g><g
       id="g330"
       transform="matrix(1.3333333,0,0,-1.3333333,-2680.313,926.60008)"
       clip-path="url(#clipPath3074)"><path
         d="m 0,0 v -232.729 h -96.299 c -43.4,0 -71.171,14.175 -71.171,64.858 V 47.615 h -79.162 c -39.036,0 -40.711,-11.283 -40.74,-47.615 v -167.871 c 0,-102.867 41.005,-129.549 135.556,-129.549 0.471,0 277.916,0.014 277.916,0.014 V 47.615 H 40.757 C 1.718,47.615 0.046,36.332 0,0"
         style="fill:#231f20;fill-opacity:1;fill-rule:nonzero;stroke:none"
         id="path332" /></g><g
       id="g334"
       transform="matrix(1.3333333,0,0,-1.3333333,-505.584,1240.091)"
       clip-path="url(#clipPath3070)"><path
         d="m 0,0 c -47.451,0 -53.471,26.345 -53.842,66.766 v 94.844 c 0,40.903 8.288,67.055 56.032,67.055 h 172.465 c 16.571,5.938 15.892,21.405 15.892,53.447 H -58.628 c -96.944,0 -129.126,-56.013 -129.126,-145.161 V 82.643 c 0.516,-88.84 31.387,-144.358 127.807,-144.358 h 40.815 171.685 c 36.096,0 40.242,9.646 40.68,39.828 V 0 Z"
         style="fill:#231f20;fill-opacity:1;fill-rule:nonzero;stroke:none"
         id="path336" /></g><g
       id="g338"
       transform="matrix(1.3333333,0,0,-1.3333333,-956.57866,1040.3539)"
       clip-path="url(#clipPath3066)"><path
         d="m 0,0 h -99.015 c -25.17,0 -35.952,15.361 -35.952,37.874 0,22.474 10.782,38.894 35.952,38.894 H 83.438 c 17.566,2.403 22.882,10.016 24.481,26.143 v 29.399 h -224.278 c -85.537,0 -140.197,-25.114 -140.197,-100.634 0,-71.258 34.113,-98.369 114.376,-98.369 v -0.178 c 2.736,0 82.816,-0.044 106.623,-0.044 23.764,0 34.19,-17.037 34.19,-37.815 0,-22.499 -10.691,-45.073 -46.493,-45.073 h -202.518 c 0,-54.313 23.721,-61.715 47.321,-61.715 h 197.77 c 85.537,0 125.51,26.496 125.51,106.788 C 120.223,-24.437 86.712,0 0,0"
         style="fill:#231f20;fill-opacity:1;fill-rule:nonzero;stroke:none"
         id="path340" /></g></g><g
     id="g4828"
     transform="matrix(1.008333,0,0,0.92941583,-660.52662,-152.43532)"><g
       id="g8810"><path
         style="fill:#1a4a24;fill-opacity:1;stroke-width:1.27903"
         d="m 980.03852,442.68233 c -34.35856,-1.74 -58.04136,-5.0573 -57.11692,-8.00051 0.35812,-1.14017 2.38121,-6.97677 4.49576,-12.97023 14.13095,-40.05275 0.69943,-77.99506 -27.61011,-77.99506 -24.44506,0 -32.96636,28.90353 -19.77729,67.08293 6.49345,18.79704 10.24461,17.80922 -30.05848,7.91546 -18.85823,-4.62938 -47.5256,-11.62201 -63.70526,-15.53918 -16.17967,-3.91717 -30.35593,-7.40366 -31.50278,-7.74776 -1.79962,-0.53995 -2.17502,-3.90483 -2.74107,-24.56977 -1.01412,-37.02183 -7.24774,-47.50452 -20.72172,-34.84637 -4.15876,3.90695 -4.44126,3.28629 -2.46022,-5.40531 7.1941,-31.56329 12.9869,-37.85937 39.90214,-43.36878 11.06598,-2.26515 12.6241,-2.99033 22.38294,-10.4174 70.79646,-53.88042 167.0296,-55.30377 208.38982,-3.08224 4.05537,5.12034 4.05537,5.12034 -1.88502,0.58593 -55.01616,-41.99479 -147.4546,-35.92496 -204.75762,13.44511 -6.94197,5.98092 -8.3174,6.6005 -19.7076,8.87744 -16.81509,3.36138 -24.6054,7.79485 -29.22089,16.62958 -2.55704,4.89456 -2.26227,6.13889 1.45429,6.13889 9.11635,0 14.21594,14.34791 16.34384,45.98412 1.50143,22.32217 1.50143,22.32217 44.98829,32.97124 71.74236,17.56826 64.04897,17.04231 60.64886,4.14617 -10.29919,-39.06346 3.44691,-68.23638 32.11276,-68.15185 35.15488,0.1036 52.56096,40.88626 37.92116,88.84968 -2.24803,7.36506 -4.9242,6.74761 38.40357,8.8606 69.30223,3.37972 145.21513,-4.76935 199.85143,-21.45353 4.1735,-1.27444 -3.3882,3.77961 -12.7293,8.50793 -34.3943,17.41001 -110.5501,27.21692 -182.90058,23.55291 z m 205.05138,-53.01174 c -0.9166,-33.5053 -17.8483,-55.14568 -33.7384,-67.01947 -20.4076,-15.07723 -97.9977,-33.90819 -214.16032,-21.7019 -67.48075,7.09084 -114.00567,9.64315 -131.10007,7.19204 -8.31367,-1.19208 -8.31367,-1.19208 -0.63952,-1.36658 10.43048,-0.23717 35.55383,-3.1142 73.3242,-8.39677 17.35573,-2.42739 40.18928,-5.56953 50.74124,-6.98253 142.26717,-19.05103 224.46667,-2.19534 252.94557,51.86866 10.8581,20.61281 13.1779,47.95283 4.9327,58.13517 -2.2985,2.83853 -2.339,2.63236 -2.3054,-11.72862 z"
         id="path302"
         sodipodi:nodetypes="ssssssssssssssssssssssssssssccsssssssc" /><path
         d="m 1021.7987,364.00126 c -29.39999,-1.59165 -42.08169,-5.65315 -56.68857,-18.15537 -2.42904,-2.07903 6.96696,-6.47776 15.55203,-7.28068 22.55954,-2.10987 48.04974,4.57219 86.76994,22.74612 11.3247,5.31541 7.2739,5.55419 -45.6334,2.68993 z"
         style="fill:#2b984e;fill-opacity:1;stroke-width:1.27903"
         id="path827" /><path
         id="path302-1"
         style="fill:#008000;fill-opacity:1;stroke-width:1.27903"
         d="m 1157.6256,327.83785 c 4.1153,7.44298 -12.9217,29.45314 -12.5578,33.31361 0.364,3.86047 25.9885,-3.70289 32.4056,-5.95078 -4.2429,-10.82949 -13.6293,-22.50771 -19.8478,-27.36283 z"
         sodipodi:nodetypes="czcc" /><ellipse
         style="fill:#c81d2a;fill-opacity:1;stroke:none;stroke-width:6.01535;stroke-dasharray:6.01535, 6.01535"
         id="path436"
         cx="873.52039"
         cy="386.41226"
         rx="21.169304"
         ry="33.428043"
         transform="matrix(1,0,0.07436941,0.99723076,0,0)" /><ellipse
         style="fill:#c81d2a;fill-opacity:1;stroke:none;stroke-width:3.54734;stroke-dasharray:3.54734, 3.54734"
         id="path436-1"
         cx="718.32623"
         cy="362.35263"
         rx="10.464577"
         ry="23.516798"
         transform="matrix(1,0,0.05225672,0.99863368,0,0)" /></g></g><path
     d="m 593.96486,233.16959 10.75167,-44.0047 c 3.5839,-14.66824 15.17885,-26.07686 23.61154,-26.07686 5.90288,0 8.22186,3.09662 8.22186,7.82306 0,4.23749 -0.63244,7.98604 -1.68653,12.06055 l -12.2274,50.19795 h 14.7572 l 10.75168,-44.0047 c 4.00553,-15.32015 14.54639,-26.07686 23.82235,-26.07686 5.90289,0 8.43269,2.93365 8.43269,7.66008 0,4.23749 -0.63246,7.98604 -1.68654,12.22353 l -12.22739,50.19795 h 14.96802 l 12.2274,-50.03497 c 1.47572,-5.54134 2.31899,-10.43075 2.31899,-14.17929 0,-8.63797 -5.27043,-15.80911 -17.07619,-15.80911 -9.48678,0 -19.18438,4.40048 -26.98461,13.85334 -0.63246,-7.33412 -5.90289,-13.85334 -16.65457,-13.85334 -9.27596,0 -18.34109,4.07451 -26.35215,13.85334 h -0.42163 l 1.68653,-12.71247 H 596.9163 c -1.05408,6.35623 -2.52981,15.48314 -5.27043,27.05474 l -12.64903,51.82776 z"
     id="path13600"
     style="font-style:italic;font-stretch:condensed;font-size:185.362px;font-family:'Myriad Pro';-inkscape-font-specification:'Myriad Pro Italic Condensed';text-align:center;text-anchor:middle;fill:#1a4a24;stroke-width:22.4172" /><path
     d="m 752.28867,153.14622 c -30.5685,0 -45.11487,33.41098 -45.11487,54.59843 0,14.01631 5.90287,26.72878 24.66561,26.72878 31.41177,0 44.0608,-35.6927 44.0608,-55.73928 0,-10.59373 -3.16226,-25.58793 -23.61154,-25.58793 z m -2.5298,9.61585 c 8.85432,0 10.75168,7.17114 10.75168,15.32016 0,13.2014 -7.80024,46.77536 -26.35216,46.77536 -10.75167,0 -11.59494,-9.28988 -11.59494,-18.2538 0,-15.48313 10.33004,-43.84172 27.19542,-43.84172 z"
     id="path13602"
     style="font-style:italic;font-stretch:condensed;font-size:185.362px;font-family:'Myriad Pro';-inkscape-font-specification:'Myriad Pro Italic Condensed';text-align:center;text-anchor:middle;fill:#1a4a24;stroke-width:22.4172" /><path
     d="m 790.02498,154.28709 5.90288,78.8825 h 14.54639 l 45.3257,-78.8825 h -15.38966 l -23.61153,45.14556 c -4.00553,7.66008 -6.74614,13.36439 -9.06514,18.90573 h -0.84326 c 0.63244,-5.8673 0.42163,-10.91969 0.42163,-19.39467 l -1.68654,-44.65662 z"
     id="path13604"
     style="font-style:italic;font-stretch:condensed;font-size:185.362px;font-family:'Myriad Pro';-inkscape-font-specification:'Myriad Pro Italic Condensed';text-align:center;text-anchor:middle;fill:#1a4a24;stroke-width:22.4172" /><path
     d="m 902.81224,220.13116 c -4.8488,2.11875 -10.33004,4.23749 -18.3411,4.23749 -8.01105,0 -13.28148,-3.58557 -15.60047,-10.10478 -1.89736,-4.88942 -1.05408,-13.69036 -0.63246,-15.97208 28.0387,0 49.75287,-8.14901 49.75287,-27.3807 0,-9.1269 -6.1137,-17.76487 -20.87091,-17.76487 -29.30358,0 -44.69325,31.78118 -44.69325,53.13161 0,15.15717 6.95698,27.86965 28.46033,27.86965 8.85432,0 16.65456,-1.79279 24.03316,-4.88941 z m 1.05409,-48.40517 c 0,12.87545 -17.28702,17.11294 -33.73076,17.11294 5.69206,-17.11294 15.38965,-25.7509 24.66561,-25.7509 5.90289,0 9.06515,3.09662 9.06515,8.63796 z"
     id="path13606"
     style="font-style:italic;font-stretch:condensed;font-size:185.362px;font-family:'Myriad Pro';-inkscape-font-specification:'Myriad Pro Italic Condensed';text-align:center;text-anchor:middle;fill:#1a4a24;stroke-width:22.4172" /></svg>
