<?xml version="1.0" encoding="UTF-8" standalone="no"?>
<!-- Created with Inkscape (http://www.inkscape.org/) -->

<svg
   width="990.245"
   height="280.15121"
   viewBox="0 0 990.245 280.15121"
   version="1.1"
   id="svg5"
   xml:space="preserve"
   inkscape:version="1.2 (dc2aedaf03, 2022-05-15)"
   sodipodi:docname="logo_negativo.svg"
   xmlns:inkscape="http://www.inkscape.org/namespaces/inkscape"
   xmlns:sodipodi="http://sodipodi.sourceforge.net/DTD/sodipodi-0.dtd"
   xmlns="http://www.w3.org/2000/svg"
   xmlns:svg="http://www.w3.org/2000/svg"><sodipodi:namedview
     id="namedview7"
     pagecolor="#ffffff"
     bordercolor="#000000"
     borderopacity="0.25"
     inkscape:showpageshadow="2"
     inkscape:pageopacity="0.0"
     inkscape:pagecheckerboard="0"
     inkscape:deskcolor="#d1d1d1"
     inkscape:document-units="px"
     showgrid="false"
     showguides="false"
     inkscape:zoom="1.065898"
     inkscape:cx="396.37939"
     inkscape:cy="130.40647"
     inkscape:window-width="1920"
     inkscape:window-height="1017"
     inkscape:window-x="-8"
     inkscape:window-y="-8"
     inkscape:window-maximized="1"
     inkscape:current-layer="svg5" /><defs
     id="defs2"><clipPath
       clipPathUnits="userSpaceOnUse"
       id="clipPath3050"><path
         d="M -913.96,367.48317 H 1531.868 V -1617.2568 H -913.96 Z"
         id="path3052"
         style="stroke-width:0.999998" /></clipPath><clipPath
       clipPathUnits="userSpaceOnUse"
       id="clipPath3054"><path
         d="m -1099.7017,647.96747 h 2445.828 V -1336.7725 h -2445.828 z"
         id="path3056"
         style="stroke-width:0.999998" /></clipPath><clipPath
       clipPathUnits="userSpaceOnUse"
       id="clipPath3058"><path
         d="m -1358.4771,706.80348 h 2445.828 V -1277.9365 h -2445.828 z"
         id="path3060"
         style="stroke-width:0.999998" /></clipPath><clipPath
       clipPathUnits="userSpaceOnUse"
       id="clipPath3062"><path
         d="M -1544.2036,987.25658 H 901.62439 V -997.4834 H -1544.2036 Z"
         id="path3064"
         style="stroke-width:0.999998" /></clipPath><clipPath
       clipPathUnits="userSpaceOnUse"
       id="clipPath3066"><path
         d="M -1747.2603,1605.5475 H 698.5677 V -379.19243 h -2445.828 z"
         id="path3068"
         style="stroke-width:0.999998" /></clipPath><clipPath
       clipPathUnits="userSpaceOnUse"
       id="clipPath3070"><path
         d="M -2085.5063,1755.3504 H 360.3217 V -229.38961 h -2445.828 z"
         id="path3072"
         style="stroke-width:0.999998" /></clipPath><clipPath
       clipPathUnits="userSpaceOnUse"
       id="clipPath3074"><path
         d="M -454.45951,1520.2322 H 1991.3685 v -1984.74 H -454.45951 Z"
         id="path3076"
         style="stroke-width:0.999998" /></clipPath><clipPath
       clipPathUnits="userSpaceOnUse"
       id="clipPath3078"><path
         d="m -931.8037,1707.6774 h 2445.828 V -277.06253 h -2445.828 z"
         id="path3080"
         style="stroke-width:0.999998" /></clipPath><clipPath
       clipPathUnits="userSpaceOnUse"
       id="clipPath3082"><path
         d="m -1097.8647,1739.3298 h 2445.828 V -245.41021 h -2445.828 z"
         id="path3084"
         style="stroke-width:0.999998" /></clipPath></defs><g
     inkscape:label="Camada 1"
     inkscape:groupmode="layer"
     id="layer1"
     transform="translate(-361.07197,-463.35092)" /><g
     id="g322"
     transform="matrix(0.24286045,0,0,-0.24286045,627.46696,85.215477)"
     clip-path="url(#clipPath3082)"
     style="fill:#ffffff"><path
       d="m 0,0 c 0,-50.259 46.234,-77.735 101.309,-77.735 h 260.263 v 61.714 H 154.899 c -9.284,0 -23.176,2.524 -23.176,19.05 v 73.079 h 197.081 v 45.525 H 131.723 v 88.859 h 204.381 c 24.159,3.189 25.468,15.935 25.468,46.758 v 8.842 L 0,266.092 Z"
       style="fill:#ffffff;fill-opacity:1;fill-rule:nonzero;stroke:none"
       id="path324" /></g><g
     id="g326"
     transform="matrix(0.24286045,0,0,-0.24286045,587.1373,77.528379)"
     clip-path="url(#clipPath3078)"
     style="fill:#ffffff"><path
       d="M 0,0 C 0,-47.779 -21.223,-47.673 -69.983,-47.673 H -170.542 V 178.84 H -69.983 C -19.68,178.84 0.22,177.632 0.22,126.877 0.22,122.398 0,6.447 0,0 m -26.817,234.439 h -263.126 v -343.827 h 263.126 c 101.851,0 146.115,28.152 148.041,124.084 0.043,1.868 0.059,88.753 0.014,90.227 -1.499,94.652 -45.792,129.516 -148.055,129.516"
       style="fill:#ffffff;fill-opacity:1;fill-rule:nonzero;stroke:none"
       id="path328" /></g><g
     id="g330"
     transform="matrix(0.24286045,0,0,-0.24286045,471.20928,32.005337)"
     clip-path="url(#clipPath3074)"
     style="fill:#ffffff"><path
       d="m 0,0 v -232.729 h -96.299 c -43.4,0 -71.171,14.175 -71.171,64.858 V 47.615 h -79.162 c -39.036,0 -40.711,-11.283 -40.74,-47.615 v -167.871 c 0,-102.867 41.005,-129.549 135.556,-129.549 0.471,0 277.916,0.014 277.916,0.014 V 47.615 H 40.757 C 1.718,47.615 0.046,36.332 0,0"
       style="fill:#ffffff;fill-opacity:1;fill-rule:nonzero;stroke:none"
       id="path332" /></g><g
     id="g334"
     transform="matrix(0.24286045,0,0,-0.24286045,867.32603,89.106247)"
     clip-path="url(#clipPath3070)"
     style="fill:#ffffff"><path
       d="m 0,0 c -47.451,0 -53.471,26.345 -53.842,66.766 v 94.844 c 0,40.903 8.288,67.055 56.032,67.055 h 172.465 c 16.571,5.938 15.892,21.405 15.892,53.447 H -58.628 c -96.944,0 -129.126,-56.013 -129.126,-145.161 V 82.643 c 0.516,-88.84 31.387,-144.358 127.807,-144.358 h 40.815 171.685 c 36.096,0 40.242,9.646 40.68,39.828 V 0 Z"
       style="fill:#ffffff;fill-opacity:1;fill-rule:nonzero;stroke:none"
       id="path336" /></g><g
     id="g338"
     transform="matrix(0.24286045,0,0,-0.24286045,785.17945,52.725065)"
     clip-path="url(#clipPath3066)"
     style="fill:#ffffff"><path
       d="m 0,0 h -99.015 c -25.17,0 -35.952,15.361 -35.952,37.874 0,22.474 10.782,38.894 35.952,38.894 H 83.438 c 17.566,2.403 22.882,10.016 24.481,26.143 v 29.399 h -224.278 c -85.537,0 -140.197,-25.114 -140.197,-100.634 0,-71.258 34.113,-98.369 114.376,-98.369 v -0.178 c 2.736,0 82.816,-0.044 106.623,-0.044 23.764,0 34.19,-17.037 34.19,-37.815 0,-22.499 -10.691,-45.073 -46.493,-45.073 h -202.518 c 0,-54.313 23.721,-61.715 47.321,-61.715 h 197.77 c 85.537,0 125.51,26.496 125.51,106.788 C 120.223,-24.437 86.712,0 0,0"
       style="fill:#ffffff;fill-opacity:1;fill-rule:nonzero;stroke:none"
       id="path340" /></g><path
     id="path302"
     style="fill:#ffffff;fill-opacity:1;stroke-width:1.23819"
     d="m 253.38477,66.433594 c -38.39514,0.523446 -80.50019,13.373474 -116.19336,38.412106 -9.84015,6.90283 -11.41214,7.57639 -22.57032,9.68164 -27.139492,5.12053 -32.98033,10.97321 -40.234371,40.3086 -1.997546,8.0781 -1.712942,8.65461 2.480469,5.02344 13.586245,-11.76467 19.871962,-2.02192 20.894531,32.38671 0.570766,19.2063 0.949061,22.33411 2.763671,22.83594 1.15641,0.31982 15.45114,3.5605 31.76563,7.20117 16.31446,3.64067 45.22097,10.1388 64.23632,14.44141 40.6389,9.19541 36.85615,10.11478 30.3086,-7.35547 -13.29896,-35.4845 -4.70538,-62.34961 19.94336,-62.34961 28.54542,0 42.08853,35.26461 27.83984,72.49024 -2.13217,5.5704 -4.1721,10.99499 -4.5332,12.05468 -0.93215,2.73547 22.94696,5.81836 57.59179,7.43555 72.95331,3.40538 149.74491,-5.7095 184.42579,-21.89062 9.41893,-4.39458 17.04421,-9.09073 12.83593,-7.90626 -55.09152,15.50653 -131.63791,23.08062 -201.51757,19.93946 -43.68878,-1.96384 -40.98943,-1.39114 -38.72266,-8.23633 14.76177,-44.57792 -2.7905,-82.48183 -38.23828,-82.57813 -28.90469,-0.0786 -42.76586,27.03564 -32.38086,63.3418 3.42844,11.98587 11.18582,12.47469 -61.1543,-3.85351 -43.84919,-9.8974 -43.84934,-9.89798 -45.36328,-30.64453 -2.14563,-29.40317 -7.28621,-42.73829 -16.478516,-42.73829 -3.747526,0 -4.045142,-1.156 -1.466796,-5.70507 4.653946,-8.21114 12.509652,-12.33097 29.464842,-15.45508 11.48511,-2.11623 12.87128,-2.69319 19.87109,-8.25196 57.78047,-45.885271 150.98834,-51.526677 206.4629,-12.49609 5.98988,4.21435 5.9915,4.214 1.90234,-0.54492 C 326.46595,77.712736 291.7799,65.910148 253.38477,66.433594 Z m 119.68359,44.955076 c -28.39212,0.23615 -60.4689,2.57733 -96.33203,7.00391 -10.63988,1.31326 -33.66373,4.23223 -51.16406,6.48828 -38.08508,4.9097 -63.41816,7.58426 -73.93555,7.80469 -7.73809,0.16219 -7.73841,0.1616 0.64453,1.26953 17.23682,2.27811 64.15037,-0.0933 132.19336,-6.6836 117.13049,-11.3447 195.36768,6.15692 215.94531,20.16993 2.11437,1.45629 4.24209,3.09417 6.35352,4.87109 4.03856,6.96531 -13.05551,27.33268 -12.68946,30.91211 0.3665,3.5828 26.12357,-3.42104 32.64063,-5.52149 4.3973,9.02147 7.34711,19.63727 7.71484,32.02735 -0.0339,13.34732 0.007,13.53856 2.32422,10.90039 8.31389,-9.46362 5.97396,-34.8734 -4.97461,-54.03125 -21.53713,-37.68591 -73.54436,-55.91938 -158.7207,-55.21094 z" /><path
     d="m 369.78673,185.87321 c -29.64498,-1.4793 -42.43236,-5.25412 -57.16096,-16.87389 -2.44928,-1.93228 7.02502,-6.02053 15.68163,-6.76677 22.74753,-1.96095 48.45014,4.24946 87.49299,21.1406 11.41907,4.94023 7.33452,5.16215 -46.01366,2.50006 z"
     style="fill:#ffffff;fill-opacity:1;stroke-width:1.23819"
     id="path827" /><ellipse
     style="fill:#ffffff;fill-opacity:1;stroke:none;stroke-width:5.82471;stroke-dasharray:5.82471, 5.82471"
     id="path436"
     cx="232.60608"
     cy="206.38"
     rx="21.345707"
     ry="31.083759"
     transform="matrix(1,0,0.08064468,0.99674291,0,0)" /><ellipse
     style="fill:#ffffff;fill-opacity:1;stroke:none;stroke-width:3.43449;stroke-dasharray:3.43449, 3.43449"
     id="path436-1"
     cx="72.4394"
     cy="184.1769"
     rx="10.551778"
     ry="21.862167"
     transform="matrix(1,0,0.05668017,0.99839239,0,0)" /><path
     d="m 593.96486,233.16959 10.75167,-44.0047 c 3.5839,-14.66824 15.17885,-26.07686 23.61154,-26.07686 5.90288,0 8.22186,3.09662 8.22186,7.82306 0,4.23749 -0.63244,7.98604 -1.68653,12.06055 l -12.2274,50.19795 h 14.7572 l 10.75168,-44.0047 c 4.00553,-15.32015 14.54639,-26.07686 23.82235,-26.07686 5.90289,0 8.43269,2.93365 8.43269,7.66008 0,4.23749 -0.63246,7.98604 -1.68654,12.22353 l -12.22739,50.19795 h 14.96802 l 12.2274,-50.03497 c 1.47572,-5.54134 2.31899,-10.43075 2.31899,-14.17929 0,-8.63797 -5.27043,-15.80911 -17.07619,-15.80911 -9.48678,0 -19.18438,4.40048 -26.98461,13.85334 -0.63246,-7.33412 -5.90289,-13.85334 -16.65457,-13.85334 -9.27596,0 -18.34109,4.07451 -26.35215,13.85334 h -0.42163 l 1.68653,-12.71247 H 596.9163 c -1.05408,6.35623 -2.52981,15.48314 -5.27043,27.05474 l -12.64903,51.82776 z"
     id="path13600"
     style="font-style:italic;font-stretch:condensed;font-size:185.362px;font-family:'Myriad Pro';-inkscape-font-specification:'Myriad Pro Italic Condensed';text-align:center;text-anchor:middle;fill:#ffffff;stroke-width:22.4172" /><path
     d="m 752.28867,153.14622 c -30.5685,0 -45.11487,33.41098 -45.11487,54.59843 0,14.01631 5.90287,26.72878 24.66561,26.72878 31.41177,0 44.0608,-35.6927 44.0608,-55.73928 0,-10.59373 -3.16226,-25.58793 -23.61154,-25.58793 z m -2.5298,9.61585 c 8.85432,0 10.75168,7.17114 10.75168,15.32016 0,13.2014 -7.80024,46.77536 -26.35216,46.77536 -10.75167,0 -11.59494,-9.28988 -11.59494,-18.2538 0,-15.48313 10.33004,-43.84172 27.19542,-43.84172 z"
     id="path13602"
     style="font-style:italic;font-stretch:condensed;font-size:185.362px;font-family:'Myriad Pro';-inkscape-font-specification:'Myriad Pro Italic Condensed';text-align:center;text-anchor:middle;fill:#ffffff;stroke-width:22.4172" /><path
     d="m 790.02498,154.28709 5.90288,78.8825 h 14.54639 l 45.3257,-78.8825 h -15.38966 l -23.61153,45.14556 c -4.00553,7.66008 -6.74614,13.36439 -9.06514,18.90573 h -0.84326 c 0.63244,-5.8673 0.42163,-10.91969 0.42163,-19.39467 l -1.68654,-44.65662 z"
     id="path13604"
     style="font-style:italic;font-stretch:condensed;font-size:185.362px;font-family:'Myriad Pro';-inkscape-font-specification:'Myriad Pro Italic Condensed';text-align:center;text-anchor:middle;fill:#ffffff;stroke-width:22.4172" /><path
     d="m 902.81224,220.13116 c -4.8488,2.11875 -10.33004,4.23749 -18.3411,4.23749 -8.01105,0 -13.28148,-3.58557 -15.60047,-10.10478 -1.89736,-4.88942 -1.05408,-13.69036 -0.63246,-15.97208 28.0387,0 49.75287,-8.14901 49.75287,-27.3807 0,-9.1269 -6.1137,-17.76487 -20.87091,-17.76487 -29.30358,0 -44.69325,31.78118 -44.69325,53.13161 0,15.15717 6.95698,27.86965 28.46033,27.86965 8.85432,0 16.65456,-1.79279 24.03316,-4.88941 z m 1.05409,-48.40517 c 0,12.87545 -17.28702,17.11294 -33.73076,17.11294 5.69206,-17.11294 15.38965,-25.7509 24.66561,-25.7509 5.90289,0 9.06515,3.09662 9.06515,8.63796 z"
     id="path13606"
     style="font-style:italic;font-stretch:condensed;font-size:185.362px;font-family:'Myriad Pro';-inkscape-font-specification:'Myriad Pro Italic Condensed';text-align:center;text-anchor:middle;fill:#ffffff;stroke-width:22.4172" /></svg>
